<svg width="210" height="103" viewBox="0 0 210 103" fill="none" xmlns="http://www.w3.org/2000/svg">
<path d="M2.38039 81.715V94.5389H0V66.115H8.19684C10.7097 66.115 12.6926 66.7761 14.0132 68.0984C15.3338 69.4202 16.1287 71.4032 16.1287 73.9152C16.1287 75.5016 15.7313 76.8239 14.9406 78.0136C14.2782 79.2034 13.2184 79.9966 11.8978 80.6577C13.3509 81.0543 14.4107 81.8475 15.0731 83.0373C15.7313 84.095 15.9962 85.5489 15.9962 87.2678V89.9119C15.9962 90.8371 16.1287 91.6303 16.2612 92.2914C16.3937 93.0846 16.7911 93.6137 17.1885 94.0103V94.5389H14.6756C14.2782 94.0103 14.0133 93.3492 13.8808 92.556C13.7483 91.7628 13.6158 90.8371 13.6158 89.9119V87.2678C13.6158 85.5489 13.2184 84.2271 12.2952 83.1694C11.5004 82.1116 10.3122 81.715 8.7267 81.715H2.38039ZM2.38039 79.6H7.93189C9.91486 79.6 11.3679 79.2034 12.2952 78.1457C13.2184 77.088 13.7483 75.6337 13.7483 73.9152C13.7483 72.0643 13.2184 70.61 12.2952 69.5523C11.3679 68.627 10.0473 68.0984 8.19684 68.0984H2.38039V79.6Z" fill="#366396"/>
<path d="M30.2751 94.5391C30.1427 93.7459 30.0102 93.2168 30.0102 92.6881C29.8777 92.2916 29.8777 91.7629 29.8777 91.2338C29.2195 92.2916 28.4246 93.2168 27.3648 93.8779C26.3092 94.5391 25.2536 94.9356 23.9288 94.9356C22.2108 94.9356 20.8902 94.407 19.9628 93.3493C18.9072 92.1595 18.5098 90.7052 18.5098 88.8543C18.5098 86.8713 19.1722 85.2849 20.4928 84.2272C21.9458 83.0374 23.7963 82.3763 26.1767 82.3763H29.8777V79.8643C29.8777 78.2779 29.4803 77.0881 28.6896 76.2949C28.0272 75.3697 26.9716 74.9731 25.5143 74.9731C24.3262 74.9731 23.2706 75.3697 22.4757 76.1629C21.6809 77.0881 21.1551 78.0138 21.1551 79.2035H19.0397V79.0711C18.9072 77.4847 19.5654 76.0304 20.7577 74.8406C22.0783 73.6508 23.6638 72.9897 25.6468 72.9897C27.6298 72.9897 29.2195 73.5188 30.4076 74.7085C31.5957 75.8983 32.2581 77.6172 32.2581 79.8643V90.3086C32.2581 90.9697 32.2581 91.7629 32.2581 92.4236C32.3906 93.2168 32.523 93.8779 32.6555 94.5391H30.2751ZM24.1937 92.8202C25.5143 92.8202 26.7066 92.4236 27.7623 91.6304C28.6896 90.9697 29.4803 89.912 29.8777 88.8543V84.2272H26.0443C24.4587 84.2272 23.2706 84.6238 22.2108 85.549C21.2835 86.4747 20.8902 87.6645 20.8902 88.9863C20.8902 90.044 21.1551 90.9697 21.6809 91.7629C22.3432 92.4236 23.1381 92.8202 24.1937 92.8202Z" fill="#366396"/>
<path d="M37.5432 73.3863L37.8081 76.8236C38.338 75.6338 39.0004 74.7085 40.0561 74.0474C40.9834 73.2542 42.0391 72.9897 43.2313 72.9897C45.2143 72.9897 46.6673 73.6508 47.5905 75.1051C48.6503 76.427 49.1802 78.6745 49.1802 81.5831V94.5391H46.7998V81.5831C46.7998 79.2035 46.4024 77.4847 45.74 76.5594C44.9493 75.6338 44.022 75.1051 42.7014 75.1051C41.3767 75.1051 40.4535 75.5017 39.6587 76.2949C38.868 77.0881 38.2055 78.1458 37.8081 79.4677V94.5391H35.4277V73.3863H37.5432Z" fill="#366396"/>
<path d="M51.5605 82.9049C51.5605 79.8643 52.2188 77.4847 53.411 75.6338C54.5992 73.9154 56.3172 72.9897 58.4326 72.9897C59.6249 72.9897 60.6805 73.2542 61.4754 73.7829C62.3986 74.444 63.1934 75.2372 63.7233 76.2949L63.9841 73.3863H65.9671V94.5391C65.9671 97.1832 65.3088 99.2982 64.1166 100.885C62.796 102.339 60.9455 103 58.6976 103C57.9027 103 56.9795 102.868 56.0522 102.735C54.9966 102.471 54.2017 102.075 53.411 101.678L54.0692 99.5627C54.7316 99.9593 55.394 100.356 56.1847 100.488C56.9795 100.753 57.7703 100.885 58.6976 100.885C60.2831 100.885 61.6078 100.356 62.3985 99.2982C63.1934 98.2409 63.5908 96.6541 63.5908 94.5391V92.027C63.0609 92.9527 62.2661 93.6138 61.3429 94.1425C60.5481 94.6711 59.4924 94.9356 58.3001 94.9356C56.1847 94.9356 54.5992 94.1425 53.411 92.4236C52.2188 90.7052 51.5605 88.5897 51.5605 85.8136V82.9049ZM53.9368 85.8136C53.9368 87.929 54.3342 89.6475 55.1291 90.9697C55.9198 92.1595 57.2445 92.8202 58.83 92.8202C60.0182 92.8202 60.9455 92.5561 61.7403 91.895C62.531 91.2338 63.1934 90.4406 63.5908 89.3829V78.8069C63.1934 77.7492 62.531 76.8236 61.7403 76.1629C61.078 75.5017 60.0182 75.1051 58.9625 75.1051C57.2445 75.1051 56.0522 75.7663 55.1291 77.2202C54.3342 78.6745 53.9368 80.6579 53.9368 82.9049V85.8136Z" fill="#366396"/>
<path d="M80.1175 94.5391C79.985 93.7459 79.985 93.2168 79.8525 92.6881C79.8525 92.2916 79.8525 91.7629 79.8525 91.2338C79.1901 92.2916 78.3953 93.2168 77.3396 93.8779C76.2798 94.5391 75.0917 94.9356 73.9036 94.9356C72.1814 94.9356 70.8608 94.407 69.8052 93.3493C68.8779 92.1595 68.4805 90.7052 68.4805 88.8543C68.4805 86.8713 69.1428 85.2849 70.4634 84.2272C71.9206 83.0374 73.7711 82.3763 76.1515 82.3763H79.8525V79.8643C79.8525 78.2779 79.4551 77.0881 78.6602 76.2949C77.8695 75.3697 76.8097 74.9731 75.4891 74.9731C74.2969 74.9731 73.2413 75.3697 72.3139 76.1629C71.5232 77.0881 71.1258 78.0138 71.1258 79.2035H69.0103L68.8779 79.0711C68.8779 77.4847 69.4078 76.0304 70.7284 74.8406C72.0531 73.6508 73.6387 72.9897 75.6216 72.9897C77.6046 72.9897 79.1902 73.5188 80.3783 74.7085C81.5705 75.8983 82.1004 77.6172 82.1004 79.8643V90.3086C82.1004 90.9697 82.2329 91.7629 82.2329 92.4236C82.3612 93.2168 82.4937 93.8779 82.6262 94.5391H80.1175ZM74.1686 92.8202C75.4892 92.8202 76.6773 92.4236 77.6046 91.6304C78.6602 90.9697 79.3226 89.912 79.8525 88.8543V84.2272H76.019C74.4294 84.2272 73.1088 84.6238 72.1814 85.549C71.2583 86.4747 70.7284 87.6645 70.7284 88.9863C70.7284 90.044 71.1258 90.9697 71.6557 91.7629C72.3139 92.4236 73.1088 92.8202 74.1686 92.8202Z" fill="#366396"/>
<path d="M87.3892 73.3863L87.65 76.6915C88.1799 75.5017 88.9748 74.5765 89.8979 73.9153C90.8253 73.2542 91.8809 72.9897 93.0731 72.9897C94.3937 72.9897 95.4536 73.3863 96.3767 74.0474C97.1716 74.8406 97.8298 76.0304 98.2272 77.4847C98.7571 76.1629 99.5519 74.9731 100.475 74.1795C101.402 73.3863 102.591 72.9897 103.911 72.9897C105.766 72.9897 107.219 73.7829 108.275 75.2372C109.334 76.6915 109.864 79.0711 109.864 82.1118V94.5391H107.484V82.1118C107.484 79.4677 107.086 77.7492 106.424 76.6915C105.633 75.6338 104.706 75.1051 103.385 75.1051C101.928 75.1051 100.873 75.6338 100.21 76.8236C99.4195 78.0138 98.8896 79.4677 98.7571 81.1865V94.5391H96.3767V82.1118C96.3767 79.6001 95.9793 77.7492 95.3211 76.6915C94.5262 75.6338 93.6031 75.1051 92.2783 75.1051C91.0902 75.1051 90.0304 75.5017 89.3722 76.1629C88.5773 76.956 88.0474 78.0138 87.65 79.3356V94.5391H85.4062V73.3863H87.3892Z" fill="#366396"/>
<path d="M130.35 84.2272H130.483L133.525 65.983H138.944L133.393 94.539H128.239L124.269 77.0881H124.14L120.17 94.539H115.016L109.465 65.983H114.884L117.927 84.2272H118.059L122.157 65.983H126.123L130.35 84.2272Z" fill="#0B8039"/>
<path d="M138.551 82.6408C138.551 79.8643 139.341 77.4847 140.799 75.6338C142.252 73.9154 144.367 72.9897 147.141 72.9897C149.786 72.9897 151.902 73.9154 153.487 75.6338C154.944 77.4847 155.735 79.8643 155.735 82.6408V85.2849C155.735 88.1931 154.944 90.4406 153.487 92.2916C151.902 94.0104 149.786 94.9356 147.141 94.9356C144.367 94.9356 142.252 94.0104 140.799 92.2916C139.341 90.4406 138.551 88.1931 138.551 85.2849V82.6408ZM144.102 85.2849C144.102 86.8713 144.235 88.1931 144.765 89.1188C145.158 90.044 145.953 90.4406 147.141 90.4406C148.201 90.4406 148.996 90.044 149.521 89.1188C149.919 88.1931 150.184 86.8713 150.184 85.2849V82.6408C150.184 81.0545 149.919 79.7322 149.521 78.8069C148.996 77.8813 148.201 77.4847 147.141 77.4847C145.953 77.4847 145.158 77.8813 144.765 78.8069C144.235 79.7322 144.102 81.0545 144.102 82.6408V85.2849Z" fill="#0B8039"/>
<path d="M167.235 78.4104H165.252C164.594 78.4104 164.197 78.5424 163.799 78.8069C163.402 79.0711 163.008 79.4677 162.876 79.9967V94.5391H157.32V73.3863H162.479L162.743 76.1629V76.2949C163.137 75.2372 163.667 74.444 164.197 73.7829C164.859 73.2542 165.517 72.9897 166.312 72.9897C166.577 72.9897 166.842 72.9897 167.107 72.9897C167.368 73.1222 167.633 73.1222 167.897 73.2542L167.235 78.4104Z" fill="#0B8039"/>
<path d="M175.301 85.8135H174.378V94.539H168.826V64H174.378V81.3185H175.172L178.873 73.3866H185.22L179.664 82.9053L186.143 94.539H179.797L175.301 85.8135Z" fill="#0B8039"/>
<path d="M195.397 88.9863C195.397 88.3256 195.265 87.929 194.739 87.3999C194.342 87.0034 193.414 86.4747 192.094 85.8136C189.978 85.0204 188.393 84.0951 187.333 83.1695C186.277 82.1118 185.747 80.7899 185.747 79.2035C185.747 77.4847 186.41 76.0304 187.73 74.8406C189.055 73.5188 190.906 72.9897 193.153 72.9897C195.53 72.9897 197.38 73.6508 198.705 74.8406C200.158 76.1629 200.82 77.7492 200.82 79.6001L200.688 79.7322H195.397C195.397 78.8069 195.136 78.1458 194.739 77.6172C194.474 77.0881 193.812 76.8236 193.153 76.8236C192.491 76.8236 191.961 77.0881 191.564 77.4847C191.166 77.8813 190.906 78.4104 190.906 78.939C190.906 79.6001 191.166 79.9967 191.564 80.3933C191.961 80.7899 192.889 81.3186 194.342 81.9797C196.589 82.7729 198.175 83.6981 199.235 84.7559C200.291 85.6815 200.82 87.1358 200.82 88.7222C200.82 90.5731 200.158 92.027 198.705 93.2168C197.248 94.407 195.397 94.9356 193.021 94.9356C190.641 94.9356 188.658 94.2745 187.2 92.8202C185.88 91.3663 185.085 89.7795 185.217 87.929H190.376C190.376 88.9863 190.641 89.7795 191.166 90.3086C191.564 90.8372 192.359 91.1018 193.153 91.1018C193.944 91.1018 194.474 90.8372 194.871 90.4406C195.265 90.1761 195.397 89.6475 195.397 88.9863Z" fill="#0B8039"/>
<line y1="47.5" x2="210" y2="47.5" stroke="black" stroke-opacity="0.3"/>
<g clip-path="url(#clip0_56089_40770)">
<path d="M145.08 29.7623C145.08 30.7313 144.381 31.4666 143.418 31.4666C142.478 31.4666 141.748 30.7001 141.748 29.7623C141.748 28.8162 142.478 28.0338 143.418 28.0338C144.358 28.0338 145.08 28.8162 145.08 29.7623ZM142.067 29.7623C142.067 30.5282 142.649 31.1693 143.418 31.1693C144.202 31.1693 144.77 30.5594 144.77 29.7623C144.77 28.9798 144.179 28.3387 143.418 28.3387C142.649 28.3387 142.067 28.9798 142.067 29.7623ZM142.773 28.8315H143.457C143.721 28.8315 144.133 28.9098 144.133 29.3631C144.133 29.7075 143.876 29.8323 143.643 29.8635L144.241 30.6612H143.853L143.286 29.8794H143.107V30.6612H142.773V28.8315ZM143.107 29.1205V29.6133H143.441C143.62 29.6133 143.783 29.5821 143.783 29.3631C143.783 29.1524 143.62 29.1205 143.441 29.1205H143.107ZM177.723 29.7623C177.723 30.7313 177.024 31.4666 176.061 31.4666C175.122 31.4666 174.391 30.7001 174.391 29.7623C174.391 28.8162 175.122 28.0338 176.061 28.0338C177.001 28.0338 177.723 28.8162 177.723 29.7623ZM174.71 29.7623C174.71 30.5282 175.292 31.1693 176.061 31.1693C176.846 31.1693 177.413 30.5594 177.413 29.7623C177.413 28.9798 176.822 28.3387 176.061 28.3387C175.292 28.3387 174.71 28.9798 174.71 29.7623ZM175.416 28.8315H176.1C176.364 28.8315 176.776 28.9098 176.776 29.3631C176.776 29.7075 176.519 29.8323 176.287 29.8635L176.884 30.6612H176.496L175.929 29.8794H175.75V30.6612H175.416V28.8315ZM175.75 29.1205V29.6133H176.084C176.263 29.6133 176.426 29.5821 176.426 29.3631C176.426 29.1524 176.263 29.1205 176.084 29.1205H175.75ZM206.804 29.7623C206.804 30.7313 206.105 31.4666 205.142 31.4666C204.203 31.4666 203.472 30.7001 203.472 29.7623C203.472 28.8162 204.203 28.0338 205.142 28.0338C206.082 28.0338 206.804 28.8162 206.804 29.7623ZM203.791 29.7623C203.791 30.5282 204.373 31.1693 205.142 31.1693C205.927 31.1693 206.494 30.5594 206.494 29.7623C206.494 28.9798 205.903 28.3387 205.142 28.3387C204.373 28.3387 203.791 28.9798 203.791 29.7623ZM204.497 28.8315H205.181C205.445 28.8315 205.857 28.9098 205.857 29.3631C205.857 29.7075 205.6 29.8323 205.368 29.8635L205.965 30.6612H205.577L205.01 29.8794H204.831V30.6612H204.497V28.8315ZM204.831 29.1205V29.6133H205.165C205.344 29.6133 205.507 29.5821 205.507 29.3631C205.507 29.1524 205.344 29.1205 205.165 29.1205H204.831Z" fill="#1355E9"/>
<path d="M209.82 9.02381C209.82 19.1657 204.163 25.9591 202.769 27.447C201.377 28.9345 198.613 31.236 197.544 31.4666C196.474 31.236 193.71 28.9345 192.319 27.447C190.924 25.9591 185.268 19.1657 185.268 9.02381C185.268 5.20943 185.974 2.1095 187.181 0C190.186 1.60487 193.181 2.41887 197.544 2.41887C201.906 2.41887 204.902 1.60487 207.906 0C209.113 2.1095 209.82 5.20943 209.82 9.02381Z" fill="#1355E9"/>
<path d="M207.615 8.93239C207.615 6.97877 207.311 4.14038 206.64 3.11719L206.525 3.18154C204.692 4.16117 201.284 5.01183 197.543 5.01183C193.797 5.01183 190.278 4.0968 188.442 3.11719C187.77 4.14038 187.467 6.97877 187.467 8.93239C187.467 18.0815 192.195 23.9562 192.839 24.7463C193.71 25.8169 196.955 28.7538 197.543 28.8949C198.126 28.7538 201.37 25.8169 202.245 24.7463C202.888 23.9532 207.615 18.0815 207.615 8.93239ZM206.078 4.60766C206.684 5.5278 206.806 7.89996 206.757 9.65701C206.494 18.729 202.362 23.1782 201.78 23.8932C200.997 24.8561 198.071 27.6116 197.543 27.7513C197.013 27.6116 194.086 24.8561 193.301 23.8932C192.72 23.1782 188.591 18.729 188.328 9.6591C188.277 7.89996 188.399 5.5278 189.003 4.60766C190.656 5.48818 194.17 5.98844 197.543 5.98844C200.907 5.98687 204.425 5.48818 206.078 4.60766ZM196.83 24.2508L196.81 23.3885C196.418 23.5418 196.104 24.1324 196.108 24.6179C196.108 24.7078 196.133 25.0877 196.312 25.1841C196.378 25.2162 196.427 25.1816 196.456 25.136C196.587 24.9383 196.559 24.4823 196.83 24.2508ZM197.755 22.5246C197.674 22.4221 197.506 22.2631 197.243 22.189C197.076 22.1367 197.074 22.1529 196.93 22.0985C196.962 22.9106 197.005 23.8867 197.013 24.4646C197.027 25.0303 197.044 25.726 197.044 25.8556C197.369 26.0785 197.778 25.8916 197.778 25.8916C197.787 25.8012 197.858 24.917 197.875 23.9582C197.88 23.5657 197.924 22.6947 197.755 22.5246ZM198.22 21.1367C198.071 21.0757 197.69 20.9265 197.506 20.8493C197.274 20.7487 196.866 20.5395 196.701 20.4841C196.547 20.4318 196.294 20.3948 196.625 20.2211C196.615 19.9768 196.585 19.8072 196.576 19.6183C196.576 19.467 196.55 19.2892 196.537 19.1074C195.197 19.1191 194.656 21.19 196.841 21.741C197.162 21.8208 197.26 21.8553 197.391 21.9218C197.632 22.0518 197.725 22.127 197.838 22.2346C197.976 22.3677 198.061 22.5413 198.061 22.7765V23.8333C199.318 23.1727 199.443 21.672 198.22 21.1367ZM197.938 19.4538C197.941 19.2811 197.958 19.049 197.969 18.8753C197.973 18.7895 197.956 18.5219 197.958 18.4558C197.738 18.3964 197.736 18.4583 197.297 18.4127C197.059 18.3857 196.955 18.3584 196.757 18.3482C196.75 18.5097 196.765 18.9591 196.775 19.1013L196.803 19.5736V19.9433C196.803 19.989 196.811 20.1921 196.814 20.2419C196.969 20.3257 197.108 20.4623 197.366 20.5634C197.543 20.6289 197.778 20.7431 197.949 20.7685C197.949 20.606 197.943 20.2571 197.949 20.0895C197.953 19.7716 197.932 19.7798 197.938 19.4538ZM198.253 16.7688C197.919 16.6972 197.74 16.6546 197.64 16.6428C197.059 16.5692 196.88 16.5809 196.393 16.5489L196.091 15.8451L195.75 15.0026C194.621 15.4423 194.492 17.6885 196.24 18.0247C196.994 18.1715 197.219 18.1567 197.449 18.1836C197.884 18.2309 198.362 18.1852 198.492 18.3746C198.726 18.7133 198.406 18.7758 198.253 18.9494C198.201 19.0784 198.201 19.1369 198.19 19.3197C198.16 19.6127 198.154 19.9062 198.152 20.1809C200.034 19.989 200.591 17.2725 198.253 16.7688ZM196.199 15.4509L196.581 16.3209L197.949 16.4488V13.7827L196.391 13.6623L195.833 14.5602L196.199 15.4509ZM198.443 12.0967C198.316 12.0667 198.194 12.018 198.056 11.984C197.74 11.9042 197.383 11.8398 196.992 11.7976C196.608 11.7666 196.254 11.665 195.97 11.6081C193.893 11.1846 194.17 10.2811 194.299 9.85815C194.647 9.98817 194.973 10.0664 195.321 10.112C195.728 10.1639 196.166 10.1786 196.547 10.0049C196.206 9.7093 195.375 9.57379 195.122 9.34218C195.122 9.34218 195.572 9.28385 196.332 9.37161C196.711 9.41687 197.188 9.19387 197.188 9.19387C196.907 8.5165 196.019 7.88373 194.373 8.15996C192.108 8.53834 191.422 12.7736 196.082 13.3831C196.355 13.4191 196.888 13.4567 197.195 13.4881C197.681 13.5309 197.906 13.5309 198.19 13.5857C198.386 13.6227 198.917 14.3926 198.191 14.4693C198.191 14.4693 198.071 15.2854 198.279 16.1691C200.458 16.2005 201.368 12.8138 198.443 12.0967ZM199.66 8.50329C199.42 8.66375 198.691 9.32335 198.406 9.46459C198.257 9.54022 198.29 8.10411 198.29 8.10411C198.3 7.98627 197.925 7.7405 197.526 7.57742C197.479 7.55258 197.413 7.47437 197.295 7.42059C196.677 7.21892 196.338 7.08695 196.355 7.68466C196.36 7.78055 196.314 7.90099 196.426 8.08278C196.426 8.08278 197.024 8.37786 197.284 8.88207C197.44 9.18118 197.483 9.36653 197.483 9.36653C197.483 9.36653 197.352 9.47574 196.969 9.5321C197.262 9.62861 197.509 9.74999 197.74 9.79118L197.958 10.0308C197.787 10.0491 197.328 9.98618 196.824 9.82155L196.9 10.0532C196.699 10.2198 196.608 10.2635 196.267 10.2989C196.249 10.688 196.274 11.1145 196.334 11.466L198.021 11.7494C198.156 11.6676 198.306 11.3664 198.323 11.3486C198.624 11.0242 199.197 10.4168 200.405 9.24016C200.862 8.79324 200.142 8.17722 199.66 8.50329ZM195.744 8.67385C195.489 8.51441 195.329 8.48695 195.329 8.48695C195.329 8.48695 195.841 8.30567 196.289 8.55049C196.289 8.55049 196.22 8.76172 196.069 8.78003C195.93 8.79731 195.84 8.73386 195.744 8.67385Z" fill="white"/>
<path d="M181.084 22.7542H172.433L172.438 31.4666H158.664V22.7542H150.008V8.86038H158.664V0.148499H172.433V8.86038H181.084V22.7542Z" fill="#1355E9"/>
<path d="M157.85 12.1661L163.575 12.1701C164.144 12.1701 164.597 12.0031 164.865 11.7271C165.206 11.3779 165.231 10.8546 164.763 10.2803C163.935 9.26196 164.652 8.28408 165.521 8.31933C166.386 8.3557 167.107 9.26196 166.281 10.2803C165.813 10.8546 165.837 11.3779 166.179 11.7271C166.44 12.0031 166.901 12.1701 167.469 12.1701L173.346 12.1677C172.728 10.8212 172.533 10.462 171.469 9.53799C170.059 8.30773 167.433 7.17639 165.592 7.17639C163.234 7.17639 161.104 8.13971 159.56 9.69601C158.855 10.409 158.275 11.2442 157.85 12.1661ZM160.255 22.4641C160.801 21.4306 163.187 16.952 163.935 15.5471C164.763 13.9858 163.86 13.3318 162.639 13.2577C161.499 13.1931 159.643 12.8832 157.565 12.8373C157.24 13.7482 157.062 14.7412 157.062 15.7651C157.062 18.4709 158.307 20.8886 160.255 22.4641ZM170.329 22.9112C170.329 22.9112 166.494 17.327 166.281 16.9626C166.061 16.6028 165.88 16.3813 165.521 16.3813C165.163 16.3813 164.979 16.6028 164.763 16.9626C164.575 17.2831 161.486 21.7979 160.766 22.8475C162.14 23.8013 163.801 24.3529 165.592 24.3529C167.348 24.3529 168.974 23.8205 170.329 22.9112ZM174.125 15.7651C174.125 14.7311 173.947 13.7421 173.614 12.8227C171.48 12.8579 169.569 13.19 168.409 13.2577C167.181 13.3318 166.281 13.9858 167.107 15.5471C167.942 17.107 170.714 22.3328 170.822 22.5504C172.835 20.9789 174.125 18.5229 174.125 15.7651Z" fill="white"/>
<path d="M163.825 11.0439H159.894C160.76 9.88176 162.02 9.01024 163.356 8.72005C162.924 10.2435 163.825 10.353 163.825 11.0439ZM171.148 11.0439C170.157 10.0462 169.019 9.01024 167.684 8.71808C168.117 10.2435 167.215 10.353 167.215 11.0439H171.148ZM165.52 18.0148C165.268 18.0148 162.457 22.4843 162.457 22.4843C163.284 22.9177 164.332 23.1358 165.52 23.1358C166.711 23.1358 167.757 22.9177 168.587 22.4843C168.587 22.4843 165.772 18.0148 165.52 18.0148ZM168.513 14.4224C168.193 14.4582 167.901 14.4936 168.193 15.0395C168.477 15.583 171.111 20.5934 171.111 20.5934C172.409 18.9599 173.239 16.9273 172.736 14.0948C172.736 14.0948 168.768 14.4224 168.513 14.4224ZM162.525 14.4224C162.275 14.4224 158.306 14.0948 158.306 14.0948C157.8 16.9273 158.632 18.9599 159.928 20.5934C159.928 20.5934 162.562 15.583 162.853 15.0395C163.136 14.4936 162.853 14.4582 162.525 14.4224Z" fill="#1355E9"/>
<path d="M19.0393 25.5574H7.62391L5.34105 31.4666H0L10.4775 5.15835H16.47L26.9884 31.4666H21.3222L19.0393 25.5574ZM17.3261 21.001L13.3311 10.6178L9.33605 21.001H17.3261ZM29.0143 11.8081H33.9881V14.5985C35.0079 12.5051 36.9645 11.2736 39.5327 11.2736C44.0177 11.2736 46.9122 14.4348 46.9122 19.5646V31.4666H41.9383V20.304C41.9383 17.6361 40.4297 15.9525 37.9831 15.9525C35.5377 15.9525 33.9881 17.6361 33.9881 20.304V31.4666H29.0143V11.8081ZM48.7476 11.8081H52.173V6.71834H57.2275V11.8081H62.4458V16.2397H57.2276V24.6131C57.2276 26.4593 57.962 27.3211 59.4286 27.3211C60.3665 27.3211 61.2635 26.9114 61.7523 26.3368L63.9545 30.0715C62.8949 31.1382 61.06 32 58.6543 32C54.7003 32 52.173 29.5381 52.173 24.7356V16.2397H48.7476V11.8081ZM66.3765 3.2298H71.3504V14.5985C72.3701 12.5051 74.3267 11.2736 76.8949 11.2736C81.3799 11.2736 84.2744 14.4348 84.2744 19.5646V31.4666H79.3006V20.304C79.3006 17.6361 77.7919 15.9525 75.3454 15.9525C72.8999 15.9525 71.3504 17.6361 71.3504 20.304V31.4666H66.3765V3.2298ZM86.9676 21.6168C86.9676 15.9124 91.1661 11.2736 96.7925 11.2736C102.378 11.2736 106.658 15.5839 106.658 21.2471C106.658 21.904 106.617 22.6835 106.536 23.012H92.0631C92.5929 25.7211 94.6313 27.6084 97.6077 27.6084C99.6052 27.6084 101.276 26.7466 102.419 25.5574L104.987 29.0047C103.478 30.6872 100.706 32 97.4451 32C91.3707 32 86.9676 27.3623 86.9676 21.6168ZM92.1859 19.5234H101.522C100.91 16.8967 99.1572 15.5015 96.8744 15.5015C94.5097 15.5015 92.7975 17.1428 92.1859 19.5234ZM109.432 31.4666V11.8081H114.406V14.8034C115.426 12.6699 117.342 11.2736 119.91 11.2736C122.886 11.2736 125.169 12.7512 126.31 15.3779C127.33 13.0385 129.205 11.2736 132.304 11.2736C136.829 11.2736 139.805 14.3112 139.805 19.5646V31.4666H134.79V20.304C134.79 17.6361 133.323 15.9525 130.958 15.9525C128.593 15.9525 127.086 17.6361 127.086 20.304V31.4666H122.112V20.304C122.112 17.6361 120.644 15.9525 118.279 15.9525C115.915 15.9525 114.406 17.6361 114.406 20.304V31.4666H109.432Z" fill="#1355E9"/>
</g>
<defs>
<clipPath id="clip0_56089_40770">
<rect width="210" height="32" fill="white"/>
</clipPath>
</defs>
</svg>
