<svg width="400" height="67" viewBox="0 0 400 67" fill="none" xmlns="http://www.w3.org/2000/svg">
<path d="M274.168 53.4283V61.5496H272.66V43.5488H277.851C279.443 43.5488 280.698 43.9675 281.535 44.8049C282.371 45.642 282.874 46.8978 282.874 48.4887C282.874 49.4933 282.623 50.3307 282.122 51.0842C281.702 51.8377 281.031 52.34 280.195 52.7587C281.115 53.0098 281.786 53.5122 282.206 54.2656C282.623 54.9355 282.791 55.8562 282.791 56.9448V58.6193C282.791 59.2052 282.874 59.7076 282.958 60.1263C283.042 60.6286 283.294 60.9636 283.546 61.2148V61.5496H281.954C281.702 61.2148 281.535 60.7961 281.451 60.2938C281.367 59.7915 281.283 59.2052 281.283 58.6193V56.9448C281.283 55.8562 281.031 55.0191 280.447 54.3493C279.943 53.6794 279.191 53.4283 278.187 53.4283H274.168ZM274.168 52.0888H277.683C278.939 52.0888 279.859 51.8377 280.447 51.1678C281.031 50.498 281.367 49.577 281.367 48.4887C281.367 47.3165 281.031 46.3955 280.447 45.7256C279.859 45.1397 279.023 44.8049 277.851 44.8049H274.168V52.0888Z" fill="#366396"/>
<path d="M291.834 61.5497C291.75 61.0474 291.666 60.7123 291.666 60.3775C291.582 60.1264 291.582 59.7916 291.582 59.4565C291.165 60.1264 290.662 60.7123 289.991 61.131C289.322 61.5497 288.654 61.8009 287.815 61.8009C286.727 61.8009 285.89 61.4661 285.303 60.7962C284.635 60.0427 284.383 59.1217 284.383 57.9496C284.383 56.6937 284.802 55.6891 285.639 55.0193C286.559 54.2658 287.731 53.8471 289.238 53.8471H291.582V52.2562C291.582 51.2516 291.33 50.4981 290.83 49.9958C290.41 49.4098 289.742 49.1587 288.819 49.1587C288.066 49.1587 287.398 49.4098 286.894 49.9121C286.391 50.4981 286.058 51.0843 286.058 51.8378H284.718V51.7539C284.635 50.7493 285.051 49.8282 285.806 49.0748C286.643 48.3213 287.647 47.9026 288.903 47.9026C290.158 47.9026 291.165 48.2376 291.918 48.9911C292.67 49.7446 293.09 50.8332 293.09 52.2562V58.8706C293.09 59.2893 293.09 59.7916 293.09 60.21C293.173 60.7123 293.257 61.131 293.341 61.5497H291.834ZM287.982 60.4612C288.819 60.4612 289.574 60.21 290.242 59.7077C290.83 59.2893 291.33 58.6194 291.582 57.9496V55.0193H289.154C288.15 55.0193 287.398 55.2704 286.727 55.8564C286.139 56.4426 285.89 57.1961 285.89 58.0332C285.89 58.703 286.058 59.2893 286.391 59.7916C286.811 60.21 287.314 60.4612 287.982 60.4612Z" fill="#366396"/>
<path d="M296.435 48.1538L296.603 50.3306C296.939 49.5771 297.358 48.9911 298.027 48.5724C298.614 48.0701 299.283 47.9026 300.038 47.9026C301.293 47.9026 302.214 48.3213 302.798 49.2423C303.469 50.0794 303.805 51.5027 303.805 53.3448V61.5497H302.298V53.3448C302.298 51.8378 302.046 50.7493 301.626 50.1633C301.126 49.5771 300.538 49.2423 299.702 49.2423C298.863 49.2423 298.278 49.4935 297.775 49.9958C297.274 50.4981 296.855 51.1679 296.603 52.0051V61.5497H295.096V48.1538H296.435Z" fill="#366396"/>
<path d="M305.312 54.1819C305.312 52.2562 305.729 50.7493 306.484 49.5771C307.237 48.4888 308.325 47.9026 309.665 47.9026C310.42 47.9026 311.088 48.0701 311.592 48.4049C312.176 48.8236 312.68 49.3259 313.015 49.9958L313.18 48.1538H314.436V61.5497C314.436 63.2242 314.019 64.5636 313.264 65.5685C312.428 66.4893 311.256 66.908 309.832 66.908C309.329 66.908 308.744 66.8244 308.157 66.7405C307.489 66.5732 306.985 66.322 306.484 66.0709L306.901 64.7312C307.321 64.9823 307.74 65.2335 308.241 65.3174C308.744 65.4847 309.245 65.5685 309.832 65.5685C310.836 65.5685 311.675 65.2335 312.176 64.5636C312.68 63.8941 312.931 62.8892 312.931 61.5497V59.9588C312.596 60.5451 312.092 60.9638 311.508 61.2985C311.004 61.6333 310.336 61.8009 309.581 61.8009C308.241 61.8009 307.237 61.2985 306.484 60.21C305.729 59.1217 305.312 57.782 305.312 56.0239V54.1819ZM306.817 56.0239C306.817 57.3636 307.069 58.4519 307.572 59.2893C308.073 60.0427 308.912 60.4612 309.916 60.4612C310.669 60.4612 311.256 60.2939 311.759 59.8752C312.26 59.4565 312.68 58.9542 312.931 58.2844V51.5866C312.68 50.9168 312.26 50.3306 311.759 49.9121C311.34 49.4935 310.669 49.2423 310 49.2423C308.912 49.2423 308.157 49.661 307.572 50.5817C307.069 51.5027 306.817 52.7588 306.817 54.1819V56.0239Z" fill="#366396"/>
<path d="M323.399 61.5497C323.315 61.0474 323.315 60.7123 323.231 60.3775C323.231 60.1264 323.231 59.7916 323.231 59.4565C322.812 60.1264 322.308 60.7123 321.64 61.131C320.969 61.5497 320.216 61.8009 319.464 61.8009C318.373 61.8009 317.537 61.4661 316.868 60.7962C316.281 60.0427 316.029 59.1217 316.029 57.9496C316.029 56.6937 316.449 55.6891 317.285 55.0193C318.208 54.2658 319.38 53.8471 320.887 53.8471H323.231V52.2562C323.231 51.2516 322.979 50.4981 322.476 49.9958C321.975 49.4098 321.304 49.1587 320.468 49.1587C319.713 49.1587 319.044 49.4098 318.457 49.9121C317.956 50.4981 317.705 51.0843 317.705 51.8378H316.365L316.281 51.7539C316.281 50.7493 316.617 49.8282 317.453 49.0748C318.292 48.3213 319.296 47.9026 320.552 47.9026C321.808 47.9026 322.812 48.2376 323.564 48.9911C324.319 49.7446 324.655 50.8332 324.655 52.2562V58.8706C324.655 59.2893 324.739 59.7916 324.739 60.21C324.82 60.7123 324.904 61.131 324.988 61.5497H323.399ZM319.632 60.4612C320.468 60.4612 321.22 60.21 321.808 59.7077C322.476 59.2893 322.896 58.6194 323.231 57.9496V55.0193H320.803C319.797 55.0193 318.96 55.2704 318.373 55.8564C317.788 56.4426 317.453 57.1961 317.453 58.0332C317.453 58.703 317.705 59.2893 318.04 59.7916C318.457 60.21 318.96 60.4612 319.632 60.4612Z" fill="#366396"/>
<path d="M328.002 48.1538L328.167 50.2469C328.503 49.4935 329.006 48.9075 329.591 48.4888C330.178 48.0701 330.846 47.9026 331.601 47.9026C332.438 47.9026 333.109 48.1538 333.694 48.5724C334.197 49.0748 334.614 49.8282 334.866 50.7493C335.201 49.9121 335.704 49.1587 336.289 48.6561C336.876 48.1538 337.629 47.9026 338.465 47.9026C339.64 47.9026 340.56 48.4049 341.228 49.3259C341.9 50.2469 342.235 51.7539 342.235 53.6796V61.5497H340.728V53.6796C340.728 52.0051 340.476 50.9168 340.057 50.2469C339.556 49.5771 338.969 49.2423 338.132 49.2423C337.209 49.2423 336.541 49.5771 336.121 50.3306C335.621 51.0843 335.285 52.0051 335.201 53.0936V61.5497H333.694V53.6796C333.694 52.089 333.442 50.9168 333.025 50.2469C332.522 49.5771 331.937 49.2423 331.098 49.2423C330.346 49.2423 329.675 49.4935 329.258 49.9121C328.754 50.4145 328.419 51.0843 328.167 51.9214V61.5497H326.746V48.1538H328.002Z" fill="#366396"/>
<path d="M355.209 55.019H355.293L357.22 43.4651H360.652L357.136 61.5495H353.872L351.358 50.4979H351.276L348.762 61.5495H345.498L341.982 43.4651H345.414L347.341 55.019H347.425L350.021 43.4651H352.532L355.209 55.019Z" fill="#0B8039"/>
<path d="M360.404 54.0146C360.404 52.2562 360.905 50.7493 361.828 49.5771C362.748 48.4888 364.088 47.9026 365.844 47.9026C367.52 47.9026 368.859 48.4888 369.863 49.5771C370.786 50.7493 371.287 52.2562 371.287 54.0146V55.6891C371.287 57.5309 370.786 58.9542 369.863 60.1264C368.859 61.2149 367.52 61.8009 365.844 61.8009C364.088 61.8009 362.748 61.2149 361.828 60.1264C360.905 58.9542 360.404 57.5309 360.404 55.6891V54.0146ZM363.92 55.6891C363.92 56.6938 364.004 57.5309 364.339 58.1171C364.589 58.703 365.092 58.9542 365.844 58.9542C366.516 58.9542 367.019 58.703 367.352 58.1171C367.604 57.5309 367.771 56.6938 367.771 55.6891V54.0146C367.771 53.01 367.604 52.1726 367.352 51.5866C367.019 51.0004 366.516 50.7493 365.844 50.7493C365.092 50.7493 364.589 51.0004 364.339 51.5866C364.004 52.1726 363.92 53.01 363.92 54.0146V55.6891Z" fill="#0B8039"/>
<path d="M378.568 51.3355H377.312C376.895 51.3355 376.644 51.4191 376.392 51.5866C376.14 51.7539 375.891 52.0051 375.807 52.3401V61.5497H372.289V48.1538H375.556L375.724 49.9121V49.9958C375.973 49.3259 376.308 48.8236 376.644 48.4049C377.063 48.0701 377.48 47.9026 377.983 47.9026C378.151 47.9026 378.319 47.9026 378.487 47.9026C378.652 47.9865 378.82 47.9865 378.988 48.0701L378.568 51.3355Z" fill="#0B8039"/>
<path d="M383.677 56.0239H383.092V61.5497H379.576V42.2095H383.092V53.1772H383.595L385.939 48.154H389.958L386.44 54.1821L390.543 61.5497H386.524L383.677 56.0239Z" fill="#0B8039"/>
<path d="M396.403 58.0332C396.403 57.6148 396.319 57.3636 395.986 57.0285C395.735 56.7774 395.147 56.4426 394.311 56.0239C392.971 55.5216 391.967 54.9356 391.296 54.3494C390.628 53.6796 390.292 52.8424 390.292 51.8378C390.292 50.7493 390.711 49.8282 391.548 49.0748C392.387 48.2376 393.559 47.9026 394.982 47.9026C396.487 47.9026 397.659 48.3213 398.498 49.0748C399.418 49.9121 399.838 50.9168 399.838 52.089L399.754 52.1726H396.403C396.403 51.5866 396.238 51.1679 395.986 50.8332C395.819 50.4981 395.399 50.3306 394.982 50.3306C394.563 50.3306 394.227 50.4981 393.975 50.7493C393.724 51.0004 393.559 51.3355 393.559 51.6703C393.559 52.089 393.724 52.3401 393.975 52.5913C394.227 52.8424 394.814 53.1772 395.735 53.5959C397.158 54.0982 398.162 54.6842 398.834 55.354C399.502 55.9403 399.838 56.8613 399.838 57.8659C399.838 59.0381 399.418 59.9588 398.498 60.7123C397.575 61.4661 396.403 61.8009 394.898 61.8009C393.391 61.8009 392.135 61.3822 391.212 60.4612C390.376 59.5404 389.872 58.5355 389.956 57.3636H393.223C393.223 58.0332 393.391 58.5355 393.724 58.8706C393.975 59.2054 394.479 59.3729 394.982 59.3729C395.483 59.3729 395.819 59.2054 396.07 58.9542C396.319 58.7867 396.403 58.4519 396.403 58.0332Z" fill="#0B8039"/>
<path d="M220.176 61.6103V55.5088H222.238C222.716 55.5088 223.107 55.5953 223.411 55.7681C223.717 55.9388 223.943 56.1703 224.091 56.4623C224.238 56.7541 224.311 57.08 224.311 57.4394C224.311 57.7989 224.238 58.1255 224.091 58.4197C223.946 58.7136 223.721 58.948 223.417 59.1226C223.113 59.2953 222.724 59.3819 222.249 59.3819H220.772V58.7264H222.225C222.553 58.7264 222.816 58.6698 223.015 58.5565C223.214 58.4433 223.358 58.2904 223.447 58.0977C223.538 57.9032 223.584 57.6838 223.584 57.4394C223.584 57.1951 223.538 56.9767 223.447 56.784C223.358 56.5913 223.213 56.4403 223.012 56.3312C222.811 56.2198 222.545 56.1642 222.214 56.1642H220.915V61.6103H220.176ZM227.216 61.7058C226.803 61.7058 226.44 61.6074 226.128 61.4108C225.819 61.2142 225.576 60.9389 225.401 60.5855C225.229 60.2318 225.142 59.8189 225.142 59.3462C225.142 58.8693 225.229 58.4532 225.401 58.0977C225.576 57.7422 225.819 57.4662 226.128 57.2695C226.44 57.0729 226.803 56.9746 227.216 56.9746C227.629 56.9746 227.99 57.0729 228.3 57.2695C228.612 57.4662 228.854 57.7422 229.027 58.0977C229.202 58.4532 229.289 58.8693 229.289 59.3462C229.289 59.8189 229.202 60.2318 229.027 60.5855C228.854 60.9389 228.612 61.2142 228.3 61.4108C227.99 61.6074 227.629 61.7058 227.216 61.7058ZM227.216 61.0742C227.529 61.0742 227.788 60.9937 227.99 60.8327C228.193 60.6718 228.343 60.4604 228.44 60.1983C228.538 59.9361 228.586 59.6519 228.586 59.3462C228.586 59.0403 228.538 58.7553 228.44 58.491C228.343 58.227 228.193 58.0133 227.99 57.8505C227.788 57.6877 227.529 57.6062 227.216 57.6062C226.902 57.6062 226.644 57.6877 226.441 57.8505C226.239 58.0133 226.089 58.227 225.991 58.491C225.894 58.7553 225.845 59.0403 225.845 59.3462C225.845 59.6519 225.894 59.9361 225.991 60.1983C226.089 60.4604 226.239 60.6718 226.441 60.8327C226.644 60.9937 226.902 61.0742 227.216 61.0742ZM231.244 61.6103L229.849 57.0341H230.588L231.577 60.5378H231.625L232.602 57.0341H233.353L234.318 60.526H234.366L235.355 57.0341H236.094L234.7 61.6103H234.009L233.007 58.0949H232.936L231.935 61.6103H231.244ZM238.785 61.7058C238.345 61.7058 237.965 61.6082 237.645 61.4137C237.328 61.2171 237.082 60.9431 236.909 60.5915C236.739 60.2379 236.653 59.8268 236.653 59.358C236.653 58.8892 236.739 58.4761 236.909 58.1187C237.082 57.7593 237.323 57.479 237.63 57.2785C237.94 57.0761 238.303 56.9746 238.715 56.9746C238.953 56.9746 239.189 57.0145 239.42 57.0939C239.653 57.1733 239.865 57.3023 240.054 57.4811C240.246 57.6578 240.398 57.8922 240.51 58.1843C240.626 58.4761 240.681 58.8358 240.681 59.2626V59.5607H237.154V58.953H239.965C239.965 58.6947 239.915 58.4643 239.81 58.2616C239.711 58.0592 239.564 57.8993 239.375 57.7821C239.189 57.6649 238.969 57.6062 238.715 57.6062C238.434 57.6062 238.193 57.6756 237.988 57.8149C237.785 57.9517 237.629 58.1305 237.52 58.351C237.411 58.5715 237.356 58.808 237.356 59.0602V59.4652C237.356 59.8108 237.416 60.1039 237.535 60.344C237.656 60.5826 237.824 60.7643 238.039 60.8894C238.253 61.0126 238.502 61.0742 238.785 61.0742C238.971 61.0742 239.137 61.0482 239.286 60.9966C239.438 60.9431 239.569 60.8637 239.677 60.7583C239.787 60.651 239.871 60.5179 239.931 60.359L240.61 60.5498C240.539 60.78 240.419 60.9827 240.248 61.1576C240.08 61.3303 239.871 61.4653 239.624 61.5626C239.375 61.658 239.097 61.7058 238.785 61.7058ZM241.75 61.6103V57.0341H242.43V57.7255H242.477C242.561 57.4989 242.713 57.3152 242.93 57.1744C243.148 57.0333 243.394 56.9628 243.67 56.9628C243.722 56.9628 243.785 56.9638 243.864 56.9657C243.94 56.9678 244 56.9707 244.039 56.9746V57.6895C244.016 57.6838 243.961 57.6749 243.874 57.6628C243.79 57.6489 243.704 57.6421 243.609 57.6421C243.386 57.6421 243.19 57.6888 243.014 57.7821C242.841 57.8733 242.705 58.0005 242.603 58.1633C242.503 58.3243 242.453 58.508 242.453 58.7146V61.6103H241.75ZM246.65 61.7058C246.21 61.7058 245.83 61.6082 245.51 61.4137C245.193 61.2171 244.946 60.9431 244.773 60.5915C244.603 60.2379 244.519 59.8268 244.519 59.358C244.519 58.8892 244.603 58.4761 244.773 58.1187C244.946 57.7593 245.188 57.479 245.494 57.2785C245.806 57.0761 246.168 56.9746 246.58 56.9746C246.818 56.9746 247.054 57.0145 247.285 57.0939C247.518 57.1733 247.731 57.3023 247.919 57.4811C248.111 57.6578 248.263 57.8922 248.376 58.1843C248.491 58.4761 248.546 58.8358 248.546 59.2626V59.5607H245.02V58.953H247.83C247.83 58.6947 247.78 58.4643 247.676 58.2616C247.576 58.0592 247.429 57.8993 247.24 57.7821C247.054 57.6649 246.834 57.6062 246.58 57.6062C246.299 57.6062 246.058 57.6756 245.853 57.8149C245.652 57.9517 245.494 58.1305 245.384 58.351C245.277 58.5715 245.222 58.808 245.222 59.0602V59.4652C245.222 59.8108 245.282 60.1039 245.4 60.344C245.521 60.5826 245.688 60.7643 245.903 60.8894C246.118 61.0126 246.367 61.0742 246.65 61.0742C246.837 61.0742 247.002 61.0482 247.151 60.9966C247.303 60.9431 247.434 60.8637 247.542 60.7583C247.652 60.651 247.736 60.5179 247.796 60.359L248.475 60.5498C248.404 60.78 248.284 60.9827 248.113 61.1576C247.946 61.3303 247.736 61.4653 247.489 61.5626C247.24 61.658 246.962 61.7058 246.65 61.7058ZM251.343 61.7058C250.963 61.7058 250.625 61.6093 250.334 61.4166C250.043 61.222 249.812 60.9478 249.65 60.5944C249.485 60.2389 249.401 59.8189 249.401 59.3341C249.401 58.8536 249.485 58.4365 249.65 58.0828C249.812 57.7294 250.043 57.4562 250.337 57.2635C250.63 57.0711 250.971 56.9746 251.356 56.9746C251.653 56.9746 251.889 57.0244 252.062 57.1235C252.237 57.221 252.368 57.3322 252.46 57.4573C252.555 57.5805 252.628 57.6817 252.678 57.7611H252.738V55.5088H253.441V61.6103H252.762V60.9072H252.678C252.628 60.9906 252.555 61.0959 252.458 61.2231C252.363 61.3482 252.227 61.4604 252.049 61.5597C251.873 61.657 251.637 61.7058 251.343 61.7058ZM251.44 61.0742C251.721 61.0742 251.959 61.0005 252.153 60.8537C252.35 60.7045 252.497 60.499 252.599 60.2368C252.699 59.9728 252.751 59.6679 252.751 59.3224C252.751 58.9807 252.701 58.6819 252.602 58.4255C252.502 58.1672 252.355 57.9667 252.161 57.8238C251.965 57.6788 251.726 57.6062 251.44 57.6062C251.141 57.6062 250.892 57.6827 250.693 57.8356C250.497 57.9866 250.35 58.1921 250.25 58.4525C250.153 58.7104 250.103 59.0004 250.103 59.3224C250.103 59.648 250.153 59.944 250.253 60.2101C250.355 60.4743 250.504 60.6849 250.701 60.8416C250.898 60.9966 251.144 61.0742 251.44 61.0742ZM257.282 61.6103V55.5088H257.984V57.7611H258.044C258.097 57.6817 258.168 57.5805 258.259 57.4573C258.351 57.3322 258.485 57.221 258.658 57.1235C258.834 57.0244 259.07 56.9746 259.366 56.9746C259.751 56.9746 260.092 57.0711 260.386 57.2635C260.679 57.4562 260.91 57.7294 261.075 58.0828C261.238 58.4365 261.322 58.8536 261.322 59.3341C261.322 59.8189 261.238 60.2389 261.075 60.5944C260.91 60.9478 260.682 61.222 260.388 61.4166C260.097 61.6093 259.759 61.7058 259.379 61.7058C259.085 61.7058 258.849 61.657 258.674 61.5597C258.495 61.4604 258.359 61.3482 258.265 61.2231C258.17 61.0959 258.097 60.9906 258.044 60.9072H257.961V61.6103H257.282ZM257.974 59.3224C257.974 59.6679 258.023 59.9728 258.126 60.2368C258.225 60.499 258.375 60.7045 258.569 60.8537C258.763 61.0005 259.001 61.0742 259.285 61.0742C259.578 61.0742 259.822 60.9966 260.019 60.8416C260.218 60.6849 260.367 60.4743 260.467 60.2101C260.567 59.944 260.619 59.648 260.619 59.3224C260.619 59.0004 260.569 58.7104 260.47 58.4525C260.373 58.1921 260.223 57.9866 260.026 57.8356C259.83 57.6827 259.581 57.6062 259.285 57.6062C258.996 57.6062 258.758 57.6788 258.564 57.8238C258.367 57.9667 258.22 58.1672 258.121 58.4255C258.024 58.6819 257.974 58.9807 257.974 59.3224ZM262.685 63.3263C262.567 63.3263 262.459 63.3165 262.368 63.2966C262.273 63.2788 262.208 63.2607 262.174 63.2429L262.352 62.6234C262.522 62.6669 262.674 62.6829 262.806 62.6708C262.937 62.659 263.052 62.6006 263.154 62.4952C263.256 62.3919 263.351 62.2241 263.437 61.9918L263.568 61.6342L261.875 57.0341H262.638L263.901 60.6809H263.949L265.212 57.0341H265.975L264.032 62.2776C263.946 62.514 263.836 62.7096 263.707 62.8646C263.579 63.0216 263.43 63.1377 263.256 63.2133C263.089 63.2888 262.897 63.3263 262.685 63.3263Z" fill="#1A3673"/>
<path d="M200.83 18.9242H204.655V31.6873C204.655 32.8671 204.39 33.8919 203.86 34.7618C203.336 35.6317 202.606 36.3021 201.67 36.7727C200.735 37.2435 199.647 37.479 198.408 37.479C197.306 37.479 196.304 37.2852 195.405 36.898C194.511 36.5047 193.802 35.9088 193.278 35.1102C192.753 34.3059 192.494 33.296 192.5 32.0806H196.352C196.364 32.5632 196.463 32.9772 196.647 33.3227C196.838 33.6625 197.097 33.9247 197.425 34.1093C197.758 34.2881 198.152 34.3775 198.605 34.3775C199.081 34.3775 199.483 34.2763 199.811 34.0736C200.145 33.8649 200.398 33.561 200.571 33.162C200.744 32.7627 200.83 32.2712 200.83 31.6873V18.9242ZM213.986 37.4968C212.598 37.4968 211.397 37.2018 210.384 36.6119C209.377 36.016 208.6 35.1878 208.052 34.1271C207.503 33.0606 207.229 31.8242 207.229 30.4181C207.229 29 207.503 27.7605 208.052 26.7C208.6 25.6335 209.377 24.8053 210.384 24.2154C211.397 23.6195 212.598 23.3216 213.986 23.3216C215.375 23.3216 216.572 23.6195 217.579 24.2154C218.592 24.8053 219.373 25.6335 219.921 26.7C220.469 27.7605 220.743 29 220.743 30.4181C220.743 31.8242 220.469 33.0606 219.921 34.1271C219.373 35.1878 218.592 36.016 217.579 36.6119C216.572 37.2018 215.375 37.4968 213.986 37.4968ZM214.004 34.5473C214.636 34.5473 215.163 34.3685 215.586 34.0109C216.009 33.6476 216.328 33.1531 216.543 32.5273C216.763 31.9018 216.873 31.1897 216.873 30.3911C216.873 29.5928 216.763 28.8807 216.543 28.2552C216.328 27.6294 216.009 27.1349 215.586 26.7716C215.163 26.4079 214.636 26.2262 214.004 26.2262C213.367 26.2262 212.83 26.4079 212.395 26.7716C211.966 27.1349 211.642 27.6294 211.421 28.2552C211.207 28.8807 211.099 29.5928 211.099 30.3911C211.099 31.1897 211.207 31.9018 211.421 32.5273C211.642 33.1531 211.966 33.6476 212.395 34.0109C212.83 34.3685 213.367 34.5473 214.004 34.5473ZM223.29 37.2286V18.9242H227.098V25.8063H227.214C227.381 25.4368 227.622 25.0614 227.938 24.68C228.26 24.2927 228.677 23.971 229.189 23.7149C229.708 23.4527 230.351 23.3216 231.12 23.3216C232.121 23.3216 233.045 23.5838 233.891 24.1082C234.737 24.6265 235.413 25.4098 235.92 26.4585C236.426 27.5015 236.679 28.8092 236.679 30.3822C236.679 31.9136 236.432 33.2066 235.937 34.2613C235.449 35.31 234.781 36.1054 233.935 36.6476C233.095 37.184 232.154 37.4519 231.111 37.4519C230.372 37.4519 229.744 37.3298 229.225 37.0857C228.713 36.8413 228.293 36.5343 227.965 36.1649C227.637 35.7895 227.387 35.4112 227.214 35.03H227.044V37.2286H223.29ZM227.017 30.3644C227.017 31.1808 227.131 31.8928 227.357 32.5006C227.583 33.1083 227.911 33.582 228.34 33.9215C228.769 34.2553 229.291 34.422 229.904 34.422C230.524 34.422 231.048 34.2524 231.477 33.9126C231.906 33.5671 232.231 33.0904 232.451 32.4827C232.678 31.869 232.791 31.163 232.791 30.3644C232.791 29.5718 232.681 28.8747 232.46 28.273C232.24 27.6711 231.915 27.2005 231.486 26.861C231.057 26.5212 230.53 26.3513 229.904 26.3513C229.285 26.3513 228.76 26.5152 228.331 26.8429C227.908 27.1706 227.583 27.6354 227.357 28.2374C227.131 28.8391 227.017 29.5482 227.017 30.3644ZM261.268 25.3325H257.351C257.28 24.826 257.133 24.3761 256.913 23.9828C256.693 23.5838 256.41 23.244 256.064 22.964C255.72 22.684 255.319 22.4696 254.868 22.3204C254.42 22.1715 253.935 22.097 253.411 22.097C252.464 22.097 251.638 22.3325 250.936 22.8031C250.23 23.2679 249.688 23.9472 249.3 24.8409C248.912 25.7286 248.718 26.8072 248.718 28.0764C248.718 29.3812 248.912 30.4776 249.3 31.3654C249.693 32.2533 250.241 32.9237 250.944 33.3765C251.646 33.8293 252.459 34.0558 253.384 34.0558C253.901 34.0558 254.381 33.9871 254.824 33.8502C255.269 33.7131 255.665 33.5136 256.011 33.2514C256.357 32.9832 256.643 32.6584 256.869 32.2772C257.102 31.8957 257.262 31.4608 257.351 30.9721L261.268 30.9902C261.166 31.8302 260.911 32.6406 260.508 33.421C260.109 34.1958 259.569 34.89 258.89 35.5035C258.216 36.1115 257.411 36.5941 256.475 36.9515C255.547 37.303 254.496 37.479 253.321 37.479C251.688 37.479 250.228 37.1093 248.941 36.3705C247.661 35.6317 246.647 34.5623 245.902 33.162C245.163 31.7618 244.796 30.0666 244.796 28.0764C244.796 26.0802 245.171 24.3821 245.92 22.9819C246.673 21.5816 247.69 20.5151 248.977 19.7823C250.265 19.0433 251.712 18.6738 253.321 18.6738C254.381 18.6738 255.364 18.8228 256.271 19.1209C257.183 19.4187 257.991 19.8536 258.693 20.4257C259.396 20.9917 259.968 21.6859 260.408 22.5081C260.856 23.3306 261.142 24.272 261.268 25.3325ZM270.174 37.4968C268.784 37.4968 267.584 37.2018 266.572 36.6119C265.565 36.016 264.786 35.1878 264.238 34.1271C263.69 33.0606 263.415 31.8242 263.415 30.4181C263.415 29 263.69 27.7605 264.238 26.7C264.786 25.6335 265.565 24.8053 266.572 24.2154C267.584 23.6195 268.784 23.3216 270.174 23.3216C271.561 23.3216 272.759 23.6195 273.766 24.2154C274.78 24.8053 275.559 25.6335 276.107 26.7C276.655 27.7605 276.93 29 276.93 30.4181C276.93 31.8242 276.655 33.0606 276.107 34.1271C275.559 35.1878 274.78 36.016 273.766 36.6119C272.759 37.2018 271.561 37.4968 270.174 37.4968ZM270.192 34.5473C270.821 34.5473 271.351 34.3685 271.773 34.0109C272.195 33.6476 272.515 33.1531 272.73 32.5273C272.95 31.9018 273.06 31.1897 273.06 30.3911C273.06 29.5928 272.95 28.8807 272.73 28.2552C272.515 27.6294 272.195 27.1349 271.773 26.7716C271.351 26.4079 270.821 26.2262 270.192 26.2262C269.553 26.2262 269.018 26.4079 268.583 26.7716C268.153 27.1349 267.827 27.6294 267.607 28.2552C267.392 28.8807 267.287 29.5928 267.287 30.3911C267.287 31.1897 267.392 31.9018 267.607 32.5273C267.827 33.1531 268.153 33.6476 268.583 34.0109C269.018 34.3685 269.553 34.5473 270.192 34.5473ZM283.214 29.2918V37.2286H279.405V23.5002H283.033V25.9224H283.196C283.5 25.1241 284.009 24.4922 284.724 24.0277C285.438 23.5568 286.305 23.3216 287.325 23.3216C288.277 23.3216 289.108 23.5301 289.818 23.9472C290.526 24.3643 291.08 24.9602 291.473 25.7347C291.866 26.5034 292.063 27.421 292.063 28.4875V37.2286H288.253V29.1668C288.261 28.3265 288.046 27.6711 287.611 27.2005C287.176 26.7239 286.578 26.4855 285.815 26.4855C285.301 26.4855 284.848 26.5956 284.454 26.8161C284.069 27.0366 283.765 27.3583 283.545 27.7815C283.33 28.1986 283.22 28.7019 283.214 29.2918ZM298.869 29.2918V37.2286H295.062V23.5002H298.69V25.9224H298.853C299.157 25.1241 299.666 24.4922 300.381 24.0277C301.095 23.5568 301.962 23.3216 302.982 23.3216C303.934 23.3216 304.765 23.5301 305.475 23.9472C306.183 24.3643 306.734 24.9602 307.127 25.7347C307.52 26.5034 307.717 27.421 307.717 28.4875V37.2286H303.91V29.1668C303.915 28.3265 303.703 27.6711 303.268 27.2005C302.833 26.7239 302.232 26.4855 301.469 26.4855C300.958 26.4855 300.505 26.5956 300.111 26.8161C299.726 27.0366 299.422 27.3583 299.202 27.7815C298.987 28.1986 298.877 28.7019 298.869 29.2918ZM316.974 37.4968C315.564 37.4968 314.347 37.2107 313.327 36.6387C312.315 36.0606 311.534 35.2445 310.986 34.1897C310.438 33.1292 310.166 31.875 310.166 30.427C310.166 29.0147 310.438 27.7754 310.986 26.7089C311.534 25.6424 312.308 24.811 313.301 24.2154C314.303 23.6195 315.477 23.3216 316.822 23.3216C317.729 23.3216 318.574 23.4674 319.352 23.7595C320.139 24.0455 320.826 24.4776 321.408 25.0554C321.998 25.6335 322.456 26.3602 322.784 27.2361C323.112 28.1063 323.277 29.1251 323.277 30.2928V31.3386H311.684V28.9791H319.693C319.693 28.4309 319.572 27.9453 319.334 27.5222C319.098 27.0993 318.765 26.7684 318.343 26.5301C317.926 26.2858 317.441 26.1636 316.885 26.1636C316.308 26.1636 315.795 26.2978 315.349 26.566C314.908 26.8282 314.562 27.1827 314.313 27.6294C314.062 28.0704 313.933 28.5619 313.928 29.1041V31.3475C313.928 32.0268 314.054 32.6138 314.303 33.1083C314.56 33.6027 314.919 33.9842 315.386 34.2524C315.85 34.5203 316.4 34.6546 317.037 34.6546C317.462 34.6546 317.847 34.5951 318.199 34.4758C318.553 34.3565 318.851 34.1779 319.103 33.9396C319.352 33.701 319.544 33.4092 319.675 33.0637L323.196 33.296C323.017 34.142 322.65 34.8808 322.097 35.5127C321.549 36.1382 320.839 36.6269 319.968 36.9782C319.106 37.324 318.107 37.4968 316.974 37.4968ZM331.963 37.4968C330.557 37.4968 329.349 37.1987 328.334 36.603C327.327 36.0011 326.554 35.1669 326.011 34.1003C325.474 33.0338 325.207 31.8063 325.207 30.4181C325.207 29.0118 325.479 27.7786 326.019 26.7178C326.57 25.6513 327.346 24.82 328.353 24.2243C329.359 23.6224 330.557 23.3216 331.947 23.3216C333.142 23.3216 334.191 23.539 335.093 23.9739C335.992 24.4089 336.703 25.0197 337.227 25.8063C337.751 26.5928 338.042 27.5164 338.095 28.5769H334.503C334.401 27.8916 334.133 27.3405 333.698 26.9234C333.268 26.5005 332.705 26.2889 332.01 26.2889C331.417 26.2889 330.904 26.4496 330.463 26.7716C330.028 27.0872 329.687 27.5492 329.443 28.1569C329.199 28.7646 329.076 29.5005 329.076 30.3644C329.076 31.2403 329.197 31.9851 329.435 32.5989C329.679 33.2126 330.023 33.6803 330.463 34.002C330.904 34.3237 331.417 34.4847 332.01 34.4847C332.442 34.4847 332.833 34.3953 333.179 34.2165C333.53 34.0379 333.819 33.7786 334.047 33.4389C334.278 33.0933 334.43 32.6794 334.503 32.1967H338.095C338.035 33.2454 337.749 34.169 337.238 34.9673C336.732 35.7599 336.032 36.3794 335.138 36.8264C334.244 37.2731 333.184 37.4968 331.963 37.4968ZM347.835 23.5002V26.3602H339.568V23.5002H347.835ZM341.445 20.2112H345.252V33.01C345.252 33.3615 345.305 33.6355 345.412 33.8321C345.52 34.023 345.669 34.157 345.86 34.2346C346.057 34.3119 346.283 34.3507 346.539 34.3507C346.718 34.3507 346.896 34.3358 347.074 34.3059C347.255 34.2702 347.392 34.2435 347.486 34.2254L348.086 37.0587C347.895 37.1185 347.627 37.1869 347.281 37.2642C346.935 37.3479 346.516 37.3985 346.02 37.4163C345.103 37.4519 344.298 37.3298 343.608 37.0498C342.921 36.7698 342.389 36.3348 342.007 35.7449C341.626 35.1551 341.438 34.4102 341.445 33.5104V20.2112ZM350.315 37.2286V23.5002H354.121V37.2286H350.315ZM352.229 21.7305C351.662 21.7305 351.177 21.5428 350.771 21.1676C350.372 20.7862 350.173 20.3303 350.173 19.8001C350.173 19.2758 350.372 18.8259 350.771 18.4505C351.177 18.069 351.662 17.8784 352.229 17.8784C352.795 17.8784 353.277 18.069 353.676 18.4505C354.082 18.8259 354.284 19.2758 354.284 19.8001C354.284 20.3303 354.082 20.7862 353.676 21.1676C353.277 21.5428 352.795 21.7305 352.229 21.7305ZM363.376 37.4968C361.987 37.4968 360.786 37.2018 359.774 36.6119C358.767 36.016 357.989 35.1878 357.441 34.1271C356.893 33.0606 356.617 31.8242 356.617 30.4181C356.617 29 356.893 27.7605 357.441 26.7C357.989 25.6335 358.767 24.8053 359.774 24.2154C360.786 23.6195 361.987 23.3216 363.376 23.3216C364.763 23.3216 365.961 23.6195 366.968 24.2154C367.983 24.8053 368.761 25.6335 369.309 26.7C369.857 27.7605 370.132 29 370.132 30.4181C370.132 31.8242 369.857 33.0606 369.309 34.1271C368.761 35.1878 367.983 36.016 366.968 36.6119C365.961 37.2018 364.763 37.4968 363.376 37.4968ZM363.395 34.5473C364.024 34.5473 364.553 34.3685 364.975 34.0109C365.398 33.6476 365.717 33.1531 365.932 32.5273C366.153 31.9018 366.263 31.1897 366.263 30.3911C366.263 29.5928 366.153 28.8807 365.932 28.2552C365.717 27.6294 365.398 27.1349 364.975 26.7716C364.553 26.4079 364.024 26.2262 363.395 26.2262C362.755 26.2262 362.22 26.4079 361.785 26.7716C361.355 27.1349 361.03 27.6294 360.81 28.2552C360.595 28.8807 360.49 29.5928 360.49 30.3911C360.49 31.1897 360.595 31.9018 360.81 32.5273C361.03 33.1531 361.355 33.6476 361.785 34.0109C362.22 34.3685 362.755 34.5473 363.395 34.5473ZM376.417 29.2918V37.2286H372.607V23.5002H376.236V25.9224H376.398C376.702 25.1241 377.211 24.4922 377.927 24.0277C378.64 23.5568 379.508 23.3216 380.527 23.3216C381.479 23.3216 382.31 23.5301 383.021 23.9472C383.729 24.3643 384.282 24.9602 384.675 25.7347C385.068 26.5034 385.265 27.421 385.265 28.4875V37.2286H381.456V29.1668C381.463 28.3265 381.248 27.6711 380.813 27.2005C380.378 26.7239 379.78 26.4855 379.017 26.4855C378.504 26.4855 378.05 26.5956 377.657 26.8161C377.271 27.0366 376.967 27.3583 376.747 27.7815C376.532 28.1986 376.422 28.7019 376.417 29.2918ZM399.687 27.4149L396.2 27.6294C396.142 27.3316 396.014 27.0634 395.817 26.825C395.621 26.5807 395.361 26.3872 395.039 26.2441C394.724 26.0952 394.344 26.0207 393.904 26.0207C393.314 26.0207 392.818 26.1458 392.412 26.3961C392.005 26.6405 391.804 26.9682 391.804 27.3793C391.804 27.707 391.935 27.9841 392.197 28.2104C392.459 28.4369 392.91 28.6186 393.547 28.7557L396.032 29.2562C397.367 29.5301 398.36 29.9711 399.016 30.5788C399.671 31.1868 399.999 31.9851 399.999 32.9743C399.999 33.8741 399.734 34.6635 399.205 35.3428C398.68 36.0221 397.959 36.5522 397.042 36.9336C396.129 37.3091 395.078 37.4968 393.885 37.4968C392.068 37.4968 390.621 37.1185 389.544 36.3616C388.471 35.5989 387.842 34.5623 387.656 33.2514L391.402 33.0548C391.515 33.6088 391.788 34.0319 392.223 34.3237C392.658 34.6097 393.217 34.7529 393.896 34.7529C394.562 34.7529 395.099 34.6247 395.505 34.3685C395.914 34.1064 396.124 33.7697 396.129 33.3586C396.124 33.0128 395.977 32.73 395.692 32.5095C395.406 32.283 394.965 32.1102 394.37 31.9912L391.992 31.5174C390.65 31.2492 389.654 30.7844 388.998 30.1232C388.348 29.4617 388.023 28.6186 388.023 27.5937C388.023 26.7118 388.262 25.9523 388.739 25.3147C389.221 24.6771 389.898 24.1855 390.768 23.84C391.644 23.4944 392.669 23.3216 393.841 23.3216C395.576 23.3216 396.939 23.6879 397.936 24.4209C398.937 25.1537 399.519 26.1518 399.687 27.4149Z" fill="#1A3673"/>
<path d="M167.922 15.9924V61.8726" stroke="black" stroke-opacity="0.7" stroke-width="0.262172"/>
<path d="M29.0076 13.5629L21.3126 5.84366L13.6176 13.5628L10.7051 10.6413L21.3126 0L31.9201 10.6415L29.0076 13.5629Z" fill="#44B8F3"/>
<path d="M0.000262028 16.2756L15.5508 16.2759L15.5505 20.6738H4.68371V26.0119H14.0519V30.4476H4.68371V35.9354L15.5505 35.9356V40.3713L0 40.3711L0.000262028 16.2756ZM19.0235 14.5085L23.5952 14.5088L23.595 40.3713H19.0232L19.0235 14.5085ZM26.3897 31.3869C26.3897 26.1251 30.2875 21.8391 35.4585 21.8391C40.5919 21.8391 44.4886 25.8236 44.4886 31.0112C44.4886 31.5754 44.4508 32.2141 44.3758 32.5156L31.0742 32.5153C31.5231 35.0332 33.4348 36.838 36.2076 36.838C38.0058 36.838 39.5419 36.0486 40.5916 34.959L42.9522 38.0786C41.6028 39.6574 39.0556 40.898 36.0199 40.898C30.4366 40.898 26.3897 36.612 26.3897 31.3869ZM31.1484 29.6207H39.8048C39.28 27.0642 37.6687 25.7484 35.5325 25.7484C33.2471 25.7484 31.6733 27.328 31.1484 29.6207ZM63.9465 22.3659L57.4637 40.3716H51.5434L45.0234 22.3659H50.045L54.6158 36.2741L59.263 22.3659H63.9465ZM78.3848 38.4171C77.0732 39.9581 75.2374 40.8983 72.9143 40.8983C68.1556 40.8983 64.2957 36.988 64.2957 31.3872C64.2957 25.9369 67.9304 21.8394 72.9146 21.8394C75.2752 21.8394 77.1109 22.7043 78.3851 24.1699V22.3661H82.9935L82.9933 40.3719H78.3848V38.4171ZM78.3851 31.3495C78.3851 28.4559 76.3991 26.1621 73.6639 26.1621C70.8911 26.1621 68.8674 28.4559 68.8674 31.3495C68.8674 34.2441 70.8909 36.5745 73.6636 36.5745C76.3989 36.5745 78.3848 34.2444 78.3851 31.3495ZM91.1691 40.3719H86.5971L86.5974 22.3661H91.1691V24.1324C92.2931 22.6666 94.0171 21.8397 96.2275 21.8397C100.387 21.8397 103.047 24.7721 103.047 29.4705V40.3719H98.4761V30.1479C98.4764 27.7045 97.0518 26.1624 94.8416 26.1624C92.5552 26.1624 91.1691 27.7042 91.1691 30.1477V40.3719ZM115.136 26.1624C112.139 26.1624 110.116 28.4561 110.116 31.3497C110.116 34.2444 112.176 36.5748 115.099 36.5748C116.935 36.5751 118.396 35.9364 119.52 34.8088L121.843 38.1914C120.42 39.7712 117.835 40.8986 114.987 40.8986C109.666 40.8986 105.544 36.6126 105.544 31.3875C105.544 26.1257 109.666 21.8397 114.912 21.8397C117.984 21.8399 120.42 22.8931 121.994 24.5461L119.371 27.8167C118.246 26.7268 116.898 26.1624 115.136 26.1624ZM123.082 31.3877C123.082 26.1259 126.979 21.8399 132.151 21.8399C137.284 21.8399 141.181 25.8244 141.181 31.0118C141.181 31.5762 141.143 32.2149 141.068 32.5161H127.767C128.215 35.034 130.127 36.8388 132.9 36.8388C134.698 36.8388 136.234 36.0494 137.284 34.9596L139.645 38.0794C138.295 39.6582 135.748 40.8988 132.712 40.8988C127.129 40.8986 123.082 36.6126 123.082 31.3877ZM127.841 29.6215H136.497C135.972 27.065 134.361 25.7492 132.225 25.7492C129.939 25.7489 128.366 27.3288 127.841 29.6215ZM79.8349 54.7494H73.2111L73.2109 61.5189H70.0753L70.0758 45.3877H73.2114L73.2111 51.8049L79.8349 51.8052L79.8352 45.388H82.9964L82.9959 61.5192H79.8346L79.8349 54.7494ZM84.9884 55.5044C84.9887 51.9819 87.5973 49.1124 91.0598 49.1127C94.4964 49.1127 97.1052 51.7803 97.105 55.253C97.105 55.6308 97.0798 56.0584 97.0297 56.2603L88.1248 56.26C88.425 57.9455 89.7049 59.1539 91.5613 59.1539C92.765 59.1539 93.7935 58.6256 94.4964 57.896L96.0765 59.9844C95.1733 61.0415 93.4679 61.8718 91.4355 61.8718C87.6977 61.8718 84.9884 59.0023 84.9884 55.5044ZM88.1743 54.322L93.9697 54.3223C93.6183 52.6106 92.5395 51.7297 91.1094 51.7297C89.5793 51.7297 88.5259 52.7873 88.1743 54.322ZM108.086 60.2112C107.208 61.2429 105.979 61.8723 104.424 61.8721C101.238 61.8721 98.6536 59.2543 98.6539 55.5047C98.6539 51.856 101.087 49.1127 104.424 49.1129C106.004 49.1129 107.233 49.6918 108.086 50.6731V49.4656H111.172L111.171 61.5197H108.086V60.2112ZM108.086 55.4798C108.086 53.5423 106.757 52.0068 104.926 52.0068C103.069 52.0068 101.715 53.5423 101.714 55.4795C101.714 57.4175 103.069 58.9777 104.926 58.9777C106.757 58.9777 108.086 57.4175 108.086 55.4798ZM113.772 44.2056H116.833L116.833 61.52L113.772 61.5197L113.772 44.2056ZM118.883 49.4658H121.015L121.015 46.3454H124.076V49.4658H127.336L127.336 52.1838H124.1V57.2925C124.1 58.425 124.577 58.978 125.48 58.978C126.032 58.978 126.584 58.7265 126.885 58.3747L128.264 60.6645C127.587 61.3189 126.459 61.8726 124.978 61.8726C122.545 61.8726 120.989 60.3371 120.99 57.3926V52.1838H118.883V49.4658ZM133.216 61.5202H130.155L130.155 44.2059L133.216 44.2061V50.6485C133.969 49.6672 135.123 49.1135 136.602 49.1135C139.387 49.1137 141.168 51.0769 141.168 54.2222V61.5205L138.108 61.5202V54.6757C138.108 53.0398 137.154 52.0076 135.674 52.0073C134.144 52.0073 133.216 53.0398 133.216 54.6755V61.5202ZM143.67 39.6897C143.67 40.4193 143.144 40.983 142.411 40.983C141.69 40.983 141.134 40.4015 141.134 39.6897C141.134 38.9721 141.69 38.3848 142.411 38.3848C143.121 38.3848 143.67 38.9721 143.67 39.6897ZM141.376 39.6897C141.376 40.2767 141.826 40.7572 142.411 40.7572C143.009 40.7572 143.44 40.2948 143.44 39.6897C143.44 39.0966 142.991 38.6101 142.411 38.6101C141.826 38.6101 141.376 39.0966 141.376 39.6897ZM141.914 38.9839H142.441C142.636 38.9839 142.949 39.0432 142.949 39.3871C142.949 39.6483 142.76 39.7432 142.589 39.7725L143.038 40.3716H142.742L142.311 39.7843H142.175V40.3716H141.914V38.9839ZM142.175 39.2033V39.5767H142.429C142.565 39.5767 142.683 39.5531 142.683 39.3871C142.683 39.2269 142.559 39.2033 142.429 39.2033H142.175Z" fill="#1A3673"/>
</svg>
