<?xml version="1.0" encoding="UTF-8"?>
<!DOCTYPE svg PUBLIC "-//W3C//DTD SVG 1.1//EN" "http://www.w3.org/Graphics/SVG/1.1/DTD/svg11.dtd">
<!-- Creator: CorelDRAW X7 -->
<svg xmlns="http://www.w3.org/2000/svg" xml:space="preserve" width="1229px" height="239px" version="1.1" style="shape-rendering:geometricPrecision; text-rendering:geometricPrecision; image-rendering:optimizeQuality; fill-rule:evenodd; clip-rule:evenodd"
viewBox="0 0 1519 295"
 xmlns:xlink="http://www.w3.org/1999/xlink">
 <defs>
  <style type="text/css">
   <![CDATA[
    .fil1 {fill:#0B8039;fill-rule:nonzero}
    .fil0 {fill:#366396;fill-rule:nonzero}
   ]]>
  </style>
 </defs>
 <g id="Layer_x0020_1">
  <metadata id="CorelCorpID_0Corel-Layer"/>
  <path class="fil0" d="M18 134l0 97 -18 0 0 -215 62 0c19,0 34,5 44,15 10,10 16,25 16,44 0,12 -3,22 -9,31 -5,9 -13,15 -23,20 11,3 19,9 24,18 5,8 7,19 7,32l0 20c0,7 1,13 2,18 1,6 4,10 7,13l0 4 -19 0c-3,-4 -5,-9 -6,-15 -1,-6 -2,-13 -2,-20l0 -20c0,-13 -3,-23 -10,-31 -6,-8 -15,-11 -27,-11l-48 0zm0 -16l42 0c15,0 26,-3 33,-11 7,-8 11,-19 11,-32 0,-14 -4,-25 -11,-33 -7,-7 -17,-11 -31,-11l-44 0 0 87z"/>
  <path id="1" class="fil0" d="M229 231c-1,-6 -2,-10 -2,-14 -1,-3 -1,-7 -1,-11 -5,8 -11,15 -19,20 -8,5 -16,8 -26,8 -13,0 -23,-4 -30,-12 -8,-9 -11,-20 -11,-34 0,-15 5,-27 15,-35 11,-9 25,-14 43,-14l28 0 0 -19c0,-12 -3,-21 -9,-27 -5,-7 -13,-10 -24,-10 -9,0 -17,3 -23,9 -6,7 -10,14 -10,23l-16 0 0 -1c-1,-12 4,-23 13,-32 10,-9 22,-14 37,-14 15,0 27,4 36,13 9,9 14,22 14,39l0 79c0,5 0,11 0,16 1,6 2,11 3,16l-18 0zm-46 -13c10,0 19,-3 27,-9 7,-5 13,-13 16,-21l0 -35 -29 0c-12,0 -21,3 -29,10 -7,7 -10,16 -10,26 0,8 2,15 6,21 5,5 11,8 19,8z"/>
  <path id="2" class="fil0" d="M284 71l2 26c4,-9 9,-16 17,-21 7,-6 15,-8 24,-8 15,0 26,5 33,16 8,10 12,27 12,49l0 98 -18 0 0 -98c0,-18 -3,-31 -8,-38 -6,-7 -13,-11 -23,-11 -10,0 -17,3 -23,9 -6,6 -11,14 -14,24l0 114 -18 0 0 -160 16 0z"/>
  <path id="3" class="fil0" d="M390 143c0,-23 5,-41 14,-55 9,-13 22,-20 38,-20 9,0 17,2 23,6 7,5 13,11 17,19l2 -22 15 0 0 160c0,20 -5,36 -14,48 -10,11 -24,16 -41,16 -6,0 -13,-1 -20,-2 -8,-2 -14,-5 -20,-8l5 -16c5,3 10,6 16,7 6,2 12,3 19,3 12,0 22,-4 28,-12 6,-8 9,-20 9,-36l0 -19c-4,7 -10,12 -17,16 -6,4 -14,6 -23,6 -16,0 -28,-6 -37,-19 -9,-13 -14,-29 -14,-50l0 -22zm18 22c0,16 3,29 9,39 6,9 16,14 28,14 9,0 16,-2 22,-7 6,-5 11,-11 14,-19l0 -80c-3,-8 -8,-15 -14,-20 -5,-5 -13,-8 -21,-8 -13,0 -22,5 -29,16 -6,11 -9,26 -9,43l0 22z"/>
  <path id="4" class="fil0" d="M606 231c-1,-6 -1,-10 -2,-14 0,-3 0,-7 0,-11 -5,8 -11,15 -19,20 -8,5 -17,8 -26,8 -13,0 -23,-4 -31,-12 -7,-9 -10,-20 -10,-34 0,-15 5,-27 15,-35 11,-9 25,-14 43,-14l28 0 0 -19c0,-12 -3,-21 -9,-27 -6,-7 -14,-10 -24,-10 -9,0 -17,3 -24,9 -6,7 -9,14 -9,23l-16 0 -1 -1c0,-12 4,-23 14,-32 10,-9 22,-14 37,-14 15,0 27,4 36,13 9,9 13,22 13,39l0 79c0,5 1,11 1,16 1,6 2,11 3,16l-19 0zm-45 -13c10,0 19,-3 26,-9 8,-5 13,-13 17,-21l0 -35 -29 0c-12,0 -22,3 -29,10 -7,7 -11,16 -11,26 0,8 3,15 7,21 5,5 11,8 19,8z"/>
  <path id="5" class="fil0" d="M661 71l2 25c4,-9 10,-16 17,-21 7,-5 15,-7 24,-7 10,0 18,3 25,8 6,6 11,15 14,26 4,-10 10,-19 17,-25 7,-6 16,-9 26,-9 14,0 25,6 33,17 8,11 12,29 12,52l0 94 -18 0 0 -94c0,-20 -3,-33 -8,-41 -6,-8 -13,-12 -23,-12 -11,0 -19,4 -24,13 -6,9 -10,20 -11,33l0 5 0 96 -18 0 0 -94c0,-19 -3,-33 -8,-41 -6,-8 -13,-12 -23,-12 -9,0 -17,3 -22,8 -6,6 -10,14 -13,24l0 115 -17 0 0 -160 15 0z"/>
  <polygon id="6" class="fil1" points="986,153 987,153 1010,15 1051,15 1009,231 970,231 940,99 939,99 909,231 870,231 828,15 869,15 892,153 893,153 924,15 954,15 "/>
  <path id="7" class="fil1" d="M1048 141c0,-21 6,-39 17,-53 11,-13 27,-20 48,-20 20,0 36,7 48,20 11,14 17,32 17,53l0 20c0,22 -6,39 -17,53 -12,13 -28,20 -48,20 -21,0 -37,-7 -48,-20 -11,-14 -17,-31 -17,-53l0 -20zm42 20c0,12 1,22 5,29 3,7 9,10 18,10 8,0 14,-3 18,-10 3,-7 5,-17 5,-29l0 -20c0,-12 -2,-22 -5,-29 -4,-7 -10,-10 -18,-10 -9,0 -15,3 -18,10 -4,7 -5,17 -5,29l0 20z"/>
  <path id="8" class="fil1" d="M1265 109l-15 0c-5,0 -8,1 -11,3 -3,2 -6,5 -7,9l0 110 -42 0 0 -160 39 0 2 21 0 1c3,-8 7,-14 11,-19 5,-4 10,-6 16,-6 2,0 4,0 6,0 2,1 4,1 6,2l-5 39z"/>
  <polygon id="9" class="fil1" points="1326,165 1319,165 1319,231 1277,231 1277,0 1319,0 1319,131 1325,131 1353,71 1401,71 1359,143 1408,231 1360,231 "/>
  <path id="10" class="fil1" d="M1478 189c0,-5 -1,-8 -5,-12 -3,-3 -10,-7 -20,-12 -16,-6 -28,-13 -36,-20 -8,-8 -12,-18 -12,-30 0,-13 5,-24 15,-33 10,-10 24,-14 41,-14 18,0 32,5 42,14 11,10 16,22 16,36l-1 1 -40 0c0,-7 -2,-12 -5,-16 -2,-4 -7,-6 -12,-6 -5,0 -9,2 -12,5 -3,3 -5,7 -5,11 0,5 2,8 5,11 3,3 10,7 21,12 17,6 29,13 37,21 8,7 12,18 12,30 0,14 -5,25 -16,34 -11,9 -25,13 -43,13 -18,0 -33,-5 -44,-16 -10,-11 -16,-23 -15,-37l0 0 39 0c0,8 2,14 6,18 3,4 9,6 15,6 6,0 10,-2 13,-5 3,-2 4,-6 4,-11z"/>
 </g>
</svg>
