<svg width="24" height="25" viewBox="0 0 24 25" fill="none" xmlns="http://www.w3.org/2000/svg">
<path d="M20 17.9351H22V19.9351H2V17.9351H4V10.9351C4 8.81333 4.84285 6.7785 6.34315 5.2782C7.84344 3.77791 9.87827 2.93506 12 2.93506C14.1217 2.93506 16.1566 3.77791 17.6569 5.2782C19.1571 6.7785 20 8.81333 20 10.9351V17.9351ZM18 17.9351V10.9351C18 9.34376 17.3679 7.81764 16.2426 6.69242C15.1174 5.5672 13.5913 4.93506 12 4.93506C10.4087 4.93506 8.88258 5.5672 7.75736 6.69242C6.63214 7.81764 6 9.34376 6 10.9351V17.9351H18ZM9 21.9351H15V23.9351H9V21.9351Z" fill="#09121F"/>
</svg>
