<svg width="24" height="24" viewBox="0 0 24 24" fill="none" xmlns="http://www.w3.org/2000/svg">
<g id="Group">
<path id="Vector" d="M17.8822 19.2966C16.1234 20.4121 14.0829 21.0029 12.0002 20.9996C6.60815 20.9996 2.12215 17.1196 1.18115 11.9996C1.61118 9.6703 2.78278 7.54247 4.52115 5.93358L1.39215 2.80758L2.80715 1.39258L22.6062 21.1926L21.1912 22.6066L17.8812 19.2966H17.8822ZM5.93515 7.34958C4.57616 8.58517 3.62947 10.2084 3.22315 11.9996C3.53545 13.366 4.16242 14.6407 5.05416 15.7222C5.94589 16.8036 7.07778 17.662 8.3597 18.2289C9.64163 18.7958 11.0382 19.0556 12.4382 18.9877C13.8383 18.9198 15.2031 18.5259 16.4242 17.8376L14.3962 15.8096C13.5328 16.3534 12.5104 16.5877 11.4964 16.474C10.4824 16.3604 9.53719 15.9055 8.81572 15.184C8.09425 14.4625 7.63938 13.5173 7.52571 12.5033C7.41205 11.4894 7.64634 10.4669 8.19015 9.60358L5.93515 7.34958ZM12.9142 14.3276L9.67215 11.0856C9.49422 11.5385 9.45234 12.0335 9.55166 12.5099C9.65098 12.9863 9.88717 13.4234 10.2313 13.7675C10.5754 14.1116 11.0124 14.3478 11.4888 14.4471C11.9652 14.5464 12.4602 14.5045 12.9132 14.3266L12.9142 14.3276ZM20.8072 16.5916L19.3762 15.1616C20.0446 14.2089 20.5205 13.1348 20.7772 11.9996C20.5054 10.8093 19.9944 9.68672 19.2753 8.70007C18.5562 7.71342 17.6439 6.88331 16.594 6.26018C15.5441 5.63706 14.3784 5.23395 13.1679 5.07534C11.9573 4.91674 10.7272 5.00596 9.55215 5.33758L7.97415 3.75958C9.22115 3.26958 10.5802 2.99958 12.0002 2.99958C17.3922 2.99958 21.8782 6.87958 22.8192 11.9996C22.5127 13.6653 21.824 15.2372 20.8072 16.5916ZM11.7232 7.50758C12.3597 7.46824 12.9973 7.56464 13.5937 7.7904C14.1901 8.01615 14.7318 8.36609 15.1827 8.81703C15.6336 9.26797 15.9836 9.8096 16.2093 10.406C16.4351 11.0025 16.5315 11.6401 16.4922 12.2766L11.7222 7.50758H11.7232Z" fill="#55627B"/>
</g>
</svg>
