<svg width="40" height="40" viewBox="0 0 40 40" fill="none" xmlns="http://www.w3.org/2000/svg">
<g id="Group">
<path id="Vector" d="M20.0007 36.6673C10.7957 36.6673 3.33398 29.2057 3.33398 20.0007C3.33398 10.7957 10.7957 3.33398 20.0007 3.33398C29.2057 3.33398 36.6673 10.7957 36.6673 20.0007C36.6673 29.2057 29.2057 36.6673 20.0007 36.6673ZM20.0007 33.334C23.5369 33.334 26.9283 31.9292 29.4287 29.4287C31.9292 26.9283 33.334 23.5369 33.334 20.0007C33.334 16.4644 31.9292 13.073 29.4287 10.5726C26.9283 8.07208 23.5369 6.66732 20.0007 6.66732C16.4644 6.66732 13.073 8.07208 10.5726 10.5726C8.07208 13.073 6.66732 16.4644 6.66732 20.0007C6.66732 23.5369 8.07208 26.9283 10.5726 29.4287C13.073 31.9292 16.4644 33.334 20.0007 33.334ZM18.339 26.6673L11.2673 19.5957L13.624 17.239L18.339 21.954L27.7657 12.5257L30.124 14.8823L18.339 26.6673Z" fill="#01943C"/>
</g>
</svg>
