<svg width="28" height="28" viewBox="0 0 28 28" fill="none" xmlns="http://www.w3.org/2000/svg">
<path d="M14.0003 27.2685C6.63633 27.2685 0.666992 21.2991 0.666992 13.9351C0.666992 6.57114 6.63633 0.601807 14.0003 0.601807C21.3643 0.601807 27.3337 6.57114 27.3337 13.9351C27.3337 21.2991 21.3643 27.2685 14.0003 27.2685ZM7.35099 22.2765C9.23839 23.7854 11.5839 24.6056 14.0003 24.6018C16.627 24.6018 19.031 23.6525 20.8897 22.0791C20.0213 21.1881 18.9831 20.4803 17.8364 19.9975C16.6897 19.5148 15.4578 19.2669 14.2137 19.2685C12.9238 19.267 11.6477 19.5336 10.4663 20.0514C9.2849 20.5692 8.22403 21.3269 7.35099 22.2765ZM5.48833 20.3618C6.60893 19.1726 7.96122 18.2254 9.46184 17.5788C10.9625 16.9321 12.5796 16.5996 14.2137 16.6018C15.7892 16.5998 17.3496 16.909 18.8053 17.5116C20.261 18.1143 21.5833 18.9987 22.6963 20.1138C23.8378 18.5073 24.5118 16.616 24.6437 14.6497C24.7757 12.6834 24.3603 10.719 23.4436 8.97441C22.527 7.22984 21.145 5.7733 19.4509 4.7664C17.7569 3.7595 15.817 3.24159 13.8465 3.27014C11.876 3.29869 9.95187 3.87259 8.28769 4.92815C6.6235 5.98371 5.28427 7.47968 4.41858 9.25008C3.55289 11.0205 3.19458 12.9961 3.38341 14.9577C3.57224 16.9194 4.30082 18.7904 5.48833 20.3631V20.3618ZM14.0003 15.2685C12.5858 15.2685 11.2293 14.7066 10.2291 13.7064C9.2289 12.7062 8.66699 11.3496 8.66699 9.93514C8.66699 8.52065 9.2289 7.1641 10.2291 6.1639C11.2293 5.16371 12.5858 4.60181 14.0003 4.60181C15.4148 4.60181 16.7714 5.16371 17.7716 6.1639C18.7718 7.1641 19.3337 8.52065 19.3337 9.93514C19.3337 11.3496 18.7718 12.7062 17.7716 13.7064C16.7714 14.7066 15.4148 15.2685 14.0003 15.2685ZM14.0003 12.6018C14.7076 12.6018 15.3858 12.3209 15.8859 11.8208C16.386 11.3207 16.667 10.6424 16.667 9.93514C16.667 9.2279 16.386 8.54962 15.8859 8.04952C15.3858 7.54943 14.7076 7.26847 14.0003 7.26847C13.2931 7.26847 12.6148 7.54943 12.1147 8.04952C11.6146 8.54962 11.3337 9.2279 11.3337 9.93514C11.3337 10.6424 11.6146 11.3207 12.1147 11.8208C12.6148 12.3209 13.2931 12.6018 14.0003 12.6018Z" fill="#3B4B54"/>
</svg>
